<svg xmlns="http://www.w3.org/2000/svg" viewBox="0 0 400 560">
  <defs>
    <linearGradient id="g1" x1="0%" y1="0%" x2="100%" y2="100%">
      <stop offset="0%" style="stop-color:#0369a1"/>
      <stop offset="100%" style="stop-color:#0ea5e9"/>
    </linearGradient>
    <linearGradient id="g2" x1="0%" y1="0%" x2="100%" y2="0%">
      <stop offset="0%" style="stop-color:#fff;stop-opacity:0.15"/>
      <stop offset="100%" style="stop-color:#fff;stop-opacity:0"/>
    </linearGradient>
  </defs>
  <rect width="400" height="560" rx="16" fill="url(#g1)"/>
  <rect x="20" y="20" width="360" height="520" rx="12" fill="none" stroke="rgba(255,255,255,0.2)" stroke-width="2"/>
  <rect x="0" y="0" width="400" height="200" rx="16" fill="url(#g2)"/>
  <circle cx="200" cy="100" r="50" fill="none" stroke="rgba(255,255,255,0.2)" stroke-width="3"/>
  <circle cx="200" cy="100" r="35" fill="none" stroke="rgba(255,255,255,0.3)" stroke-width="2"/>
  <path d="M200 65 L200 135 M165 100 L235 100" stroke="rgba(255,255,255,0.4)" stroke-width="3" stroke-linecap="round"/>
  <path d="M120 160 Q160 140 200 160 Q240 180 280 160" fill="none" stroke="rgba(255,255,255,0.3)" stroke-width="3"/>
  <path d="M140 175 Q170 160 200 175 Q230 190 260 175" fill="none" stroke="rgba(255,255,255,0.2)" stroke-width="2"/>
  <text x="200" y="260" text-anchor="middle" fill="#fff" font-family="Arial,sans-serif" font-size="22" font-weight="bold">Guide Complet du</text>
  <text x="200" y="292" text-anchor="middle" fill="#fff" font-family="Arial,sans-serif" font-size="22" font-weight="bold">Traitement de l'Eau</text>
  <text x="200" y="324" text-anchor="middle" fill="#7dd3fc" font-family="Arial,sans-serif" font-size="14">de Piscine</text>
  <line x1="120" y1="350" x2="280" y2="350" stroke="rgba(255,255,255,0.3)" stroke-width="1"/>
  <text x="200" y="380" text-anchor="middle" fill="#bae6fd" font-family="Arial,sans-serif" font-size="11">pH · Chlore · Stabilisant</text>
  <text x="200" y="400" text-anchor="middle" fill="#bae6fd" font-family="Arial,sans-serif" font-size="11">Floculant · Alcalinité</text>
  <rect x="150" y="430" width="100" height="30" rx="6" fill="rgba(255,255,255,0.15)"/>
  <text x="200" y="450" text-anchor="middle" fill="#fff" font-family="Arial,sans-serif" font-size="12" font-weight="bold">PDF — 45 Pages</text>
  <text x="200" y="500" text-anchor="middle" fill="#7dd3fc" font-family="Arial,sans-serif" font-size="10">Pool Academy</text>
</svg>
