<svg xmlns="http://www.w3.org/2000/svg" viewBox="0 0 400 560">
  <defs>
    <linearGradient id="g1" x1="0%" y1="0%" x2="100%" y2="100%">
      <stop offset="0%" style="stop-color:#6b21a8"/>
      <stop offset="100%" style="stop-color:#a855f7"/>
    </linearGradient>
    <linearGradient id="g2" x1="0%" y1="0%" x2="100%" y2="0%">
      <stop offset="0%" style="stop-color:#fff;stop-opacity:0.15"/>
      <stop offset="100%" style="stop-color:#fff;stop-opacity:0"/>
    </linearGradient>
  </defs>
  <rect width="400" height="560" rx="16" fill="url(#g1)"/>
  <rect x="20" y="20" width="360" height="520" rx="12" fill="none" stroke="rgba(255,255,255,0.2)" stroke-width="2"/>
  <rect x="0" y="0" width="400" height="200" rx="16" fill="url(#g2)"/>
  <circle cx="200" cy="90" r="45" fill="none" stroke="rgba(255,255,255,0.2)" stroke-width="3"/>
  <circle cx="200" cy="90" r="30" fill="none" stroke="rgba(255,255,255,0.3)" stroke-width="2"/>
  <path d="M170 90 L230 90 M200 60 L200 120" stroke="rgba(255,255,255,0.4)" stroke-width="3" stroke-linecap="round"/>
  <circle cx="140" cy="80" r="4" fill="rgba(255,255,255,0.5)"/>
  <circle cx="160" cy="70" r="3" fill="rgba(255,255,255,0.4)"/>
  <circle cx="250" cy="75" r="3" fill="rgba(255,255,255,0.4)"/>
  <circle cx="260" cy="95" r="4" fill="rgba(255,255,255,0.3)"/>
  <path d="M120 150 Q160 130 200 150 Q240 170 280 150" fill="none" stroke="rgba(255,255,255,0.3)" stroke-width="2"/>
  <text x="200" y="250" text-anchor="middle" fill="#fff" font-family="Arial,sans-serif" font-size="20" font-weight="bold">Guide Complet</text>
  <text x="200" y="280" text-anchor="middle" fill="#fff" font-family="Arial,sans-serif" font-size="20" font-weight="bold">de la Piscine au Sel</text>
  <text x="200" y="312" text-anchor="middle" fill="#d8b4fe" font-family="Arial,sans-serif" font-size="14">et de l'Électrolyseur</text>
  <line x1="120" y1="340" x2="280" y2="340" stroke="rgba(255,255,255,0.3)" stroke-width="1"/>
  <text x="200" y="370" text-anchor="middle" fill="#e9d5ff" font-family="Arial,sans-serif" font-size="11">Sel · Électrolyse · Chlore naturel</text>
  <text x="200" y="390" text-anchor="middle" fill="#e9d5ff" font-family="Arial,sans-serif" font-size="11">Entretien · Détartrage</text>
  <rect x="150" y="430" width="100" height="30" rx="6" fill="rgba(255,255,255,0.15)"/>
  <text x="200" y="450" text-anchor="middle" fill="#fff" font-family="Arial,sans-serif" font-size="12" font-weight="bold">PDF — 38 Pages</text>
  <text x="200" y="500" text-anchor="middle" fill="#d8b4fe" font-family="Arial,sans-serif" font-size="10">Pool Academy</text>
</svg>
