<svg xmlns="http://www.w3.org/2000/svg" viewBox="0 0 400 560">
  <defs>
    <linearGradient id="g1" x1="0%" y1="0%" x2="100%" y2="100%">
      <stop offset="0%" style="stop-color:#047857"/>
      <stop offset="100%" style="stop-color:#10b981"/>
    </linearGradient>
    <linearGradient id="g2" x1="0%" y1="0%" x2="100%" y2="0%">
      <stop offset="0%" style="stop-color:#fff;stop-opacity:0.15"/>
      <stop offset="100%" style="stop-color:#fff;stop-opacity:0"/>
    </linearGradient>
  </defs>
  <rect width="400" height="560" rx="16" fill="url(#g1)"/>
  <rect x="20" y="20" width="360" height="520" rx="12" fill="none" stroke="rgba(255,255,255,0.2)" stroke-width="2"/>
  <rect x="0" y="0" width="400" height="200" rx="16" fill="url(#g2)"/>
  <circle cx="200" cy="90" r="45" fill="none" stroke="rgba(255,255,255,0.2)" stroke-width="3"/>
  <path d="M175 90 L190 105 L225 75" fill="none" stroke="#a7f3d0" stroke-width="6" stroke-linecap="round" stroke-linejoin="round"/>
  <path d="M200 135 L200 155" stroke="rgba(255,255,255,0.3)" stroke-width="2" stroke-linecap="round"/>
  <path d="M160 155 Q200 170 240 155" fill="none" stroke="rgba(255,255,255,0.15)" stroke-width="2"/>
  <text x="200" y="260" text-anchor="middle" fill="#fff" font-family="Arial,sans-serif" font-size="22" font-weight="bold">Solutions aux</text>
  <text x="200" y="292" text-anchor="middle" fill="#fff" font-family="Arial,sans-serif" font-size="22" font-weight="bold">Problèmes Courants</text>
  <text x="200" y="324" text-anchor="middle" fill="#6ee7b7" font-family="Arial,sans-serif" font-size="14">de Piscine</text>
  <line x1="120" y1="350" x2="280" y2="350" stroke="rgba(255,255,255,0.3)" stroke-width="1"/>
  <text x="200" y="380" text-anchor="middle" fill="#a7f3d0" font-family="Arial,sans-serif" font-size="11">Eau Verte · Algues · Trouble</text>
  <text x="200" y="400" text-anchor="middle" fill="#a7f3d0" font-family="Arial,sans-serif" font-size="11">Odeurs · Fuites · Filtration</text>
  <rect x="150" y="430" width="100" height="30" rx="6" fill="rgba(255,255,255,0.15)"/>
  <text x="200" y="450" text-anchor="middle" fill="#fff" font-family="Arial,sans-serif" font-size="12" font-weight="bold">PDF — 38 Pages</text>
  <text x="200" y="500" text-anchor="middle" fill="#6ee7b7" font-family="Arial,sans-serif" font-size="10">Pool Academy</text>
</svg>
