<svg xmlns="http://www.w3.org/2000/svg" viewBox="0 0 400 560">
  <defs>
    <linearGradient id="g1" x1="0%" y1="0%" x2="100%" y2="100%">
      <stop offset="0%" style="stop-color:#6d28d9"/>
      <stop offset="100%" style="stop-color:#8b5cf6"/>
    </linearGradient>
    <linearGradient id="g2" x1="0%" y1="0%" x2="100%" y2="0%">
      <stop offset="0%" style="stop-color:#fff;stop-opacity:0.15"/>
      <stop offset="100%" style="stop-color:#fff;stop-opacity:0"/>
    </linearGradient>
  </defs>
  <rect width="400" height="560" rx="16" fill="url(#g1)"/>
  <rect x="20" y="20" width="360" height="520" rx="12" fill="none" stroke="rgba(255,255,255,0.2)" stroke-width="2"/>
  <rect x="0" y="0" width="400" height="200" rx="16" fill="url(#g2)"/>
  <circle cx="200" cy="85" r="10" fill="#c4b5fd"/>
  <circle cx="170" cy="95" r="8" fill="#a78bfa"/>
  <circle cx="230" cy="95" r="8" fill="#a78bfa"/>
  <circle cx="185" cy="110" r="7" fill="#c4b5fd"/>
  <circle cx="215" cy="110" r="7" fill="#c4b5fd"/>
  <circle cx="200" cy="120" r="6" fill="#ddd6fe"/>
  <rect x="160" y="135" width="80" height="15" rx="4" fill="rgba(255,255,255,0.2)"/>
  <text x="200" y="147" text-anchor="middle" fill="#fff" font-family="Arial,sans-serif" font-size="8" font-weight="bold">CALENDRIER</text>
  <path d="M100 175 Q150 155 200 175 Q250 195 300 175" fill="none" stroke="rgba(255,255,255,0.2)" stroke-width="2"/>
  <text x="200" y="260" text-anchor="middle" fill="#fff" font-family="Arial,sans-serif" font-size="22" font-weight="bold">Entretien Saisonnier</text>
  <text x="200" y="292" text-anchor="middle" fill="#fff" font-family="Arial,sans-serif" font-size="22" font-weight="bold">de la Piscine</text>
  <line x1="120" y1="320" x2="280" y2="320" stroke="rgba(255,255,255,0.3)" stroke-width="1"/>
  <text x="200" y="350" text-anchor="middle" fill="#c4b5fd" font-family="Arial,sans-serif" font-size="11">Hivernage · Remise en Route</text>
  <text x="200" y="370" text-anchor="middle" fill="#c4b5fd" font-family="Arial,sans-serif" font-size="11">Printemps · Été · Automne · Hiver</text>
  <rect x="150" y="410" width="100" height="30" rx="6" fill="rgba(255,255,255,0.15)"/>
  <text x="200" y="430" text-anchor="middle" fill="#fff" font-family="Arial,sans-serif" font-size="12" font-weight="bold">PDF — 35 Pages</text>
  <text x="200" y="490" text-anchor="middle" fill="#c4b5fd" font-family="Arial,sans-serif" font-size="10">Pool Academy</text>
</svg>
